<svg xmlns="http://www.w3.org/2000/svg" xmlns:xlink="http://www.w3.org/1999/xlink" version="1.1" width="1000" height="1000" viewBox="0 0 1000 1000" xml:space="preserve">
<desc>Created with Fabric.js 3.5.0</desc>
<defs>
</defs>
<rect x="0" y="0" width="100%" height="100%" fill="rgba(255,255,255,0)"/>
<g transform="matrix(1.2873 0 0 1.2873 884.8082 160.2689)" id="787013">
<g style="" vector-effect="non-scaling-stroke">
		<g transform="matrix(3.9756 0 0 3.9756 -0.0002 1.2558)" id="470015">
<path style="stroke: none; stroke-width: 1; stroke-dasharray: none; stroke-linecap: butt; stroke-dashoffset: 0; stroke-linejoin: miter; stroke-miterlimit: 4; is-custom-font: none; font-file-url: none; fill: rgb(7,58,142); fill-rule: nonzero; opacity: 1;" transform=" translate(-20.5, -31)" d="M 18.640625 0.0546875 L 22.359375 0.0546875 C 32.652344 0.0546875 41 8.316406 41 18.507812 L 41 43.492188 C 41 53.683594 32.652344 61.945312 22.359375 61.945312 L 18.640625 61.945312 C 8.347656 61.945312 0 53.683594 0 43.492188 L 0 18.507812 C 0 8.316406 8.347656 0.0546875 18.640625 0.0546875 Z M 18.640625 0.0546875" stroke-linecap="round"/>
</g>
		<g transform="matrix(0.2547 0 0 0.2521 -2.6689 3.5251)" id="796563">
<path style="stroke: rgb(255,255,255); stroke-width: 53; stroke-dasharray: none; stroke-linecap: butt; stroke-dashoffset: 0; stroke-linejoin: miter; stroke-miterlimit: 4; is-custom-font: none; font-file-url: none; fill: none; fill-rule: nonzero; opacity: 1;" transform=" translate(-309.5122, -497.024)" d="M 157.012195 330.003513 L 462.012195 637.003315 L 315 815.01885 L 315 179.029092 L 462.012195 348.975411 L 157.012195 648.029191" stroke-linecap="round"/>
</g>
</g>
</g>
<g transform="matrix(7.3982 0 0 7.3982 522.722 531.4303)" id="315910">
<path style="stroke: none; stroke-width: 0; stroke-dasharray: none; stroke-linecap: butt; stroke-dashoffset: 0; stroke-linejoin: miter; stroke-miterlimit: 4; is-custom-font: none; font-file-url: none; fill: rgb(0,0,0); fill-rule: evenodd; opacity: 1;" vector-effect="non-scaling-stroke" transform=" translate(-61.44, -56.56)" d="M 99.83 67.01 c 12.72 0 23.05 10.32 23.05 23.05 c 0 12.72 -10.32 23.05 -23.05 23.05 s -23.05 -10.32 -23.05 -23.05 c 0 -8.21 3.56 -14.68 10.02 -18.76 l -5.69 -9.56 h -15 c 1.52 -3.28 2.47 -6.09 2.28 -7.7 h 15.32 c 0.63 0 1.22 0.17 1.74 0.47 l 1.61 -3.35 l 0.36 -0.04 l 0 0 c 0.14 -0.02 0.29 -0.04 0.44 -0.06 c 4.12 -0.77 6.58 -3.37 7.6 -6.5 c 0.46 -1.41 0.58 -2.92 0.39 -4.39 c -0.18 -1.43 -0.67 -2.83 -1.42 -4.07 c -0.33 -0.54 -0.71 -1.05 -1.13 -1.53 h 3.83 v 0.02 c 0.49 0 0.99 0.11 1.47 0.33 c 1.74 0.81 2.49 2.88 1.67 4.62 L 90.1 60.96 l 3.9 6.8 C 95.9 67.25 97.86 67.01 99.83 67.01 L 99.83 67.01 z M 34.14 30.59 l 21.03 -15.38 c 2.47 -1.54 5.13 -2.57 7.28 -2.29 c 1.79 0.24 3.44 1.21 4.94 3.11 c 4.56 5.69 6.82 13.5 9.34 22.11 l 8.87 -1.04 c 5.07 -0.23 6.4 7.22 1.19 8.2 l -9.14 1.01 c -4.08 0.46 -7.06 1.59 -9.28 -3.01 l -4.96 -12.44 l -14.27 9.92 c -0.88 0.92 -1.01 1.83 -0.13 2.75 l 10.71 7.79 c 1.41 0.95 2.6 1.62 2.89 3.51 c 0.44 2.84 -11.58 21.71 -13.68 25.35 c -3.69 4.1 -10.69 0.39 -7.78 -4.58 l 8.14 -17.15 c -2.42 -1.44 -4.77 -2.88 -7.03 -4.32 C 34.72 49.35 24.69 38.38 34.14 30.59 L 34.14 30.59 z M 81.6 0 c 5.49 0 9.94 4.45 9.94 9.94 c 0 5.49 -4.45 9.94 -9.94 9.94 c -5.49 0 -9.94 -4.45 -9.94 -9.94 C 71.66 4.45 76.11 0 81.6 0 L 81.6 0 z M 41.25 61.73 h -4.77 l -2.83 8.23 c 1.03 0.49 2 1.04 2.91 1.64 l -0.68 1.44 c -1.09 2.03 -1.45 4.03 -1.24 5.88 c -1.3 -1.35 -2.83 -2.48 -4.54 -3.31 l 0 0 l -5.76 13.02 c -0.77 1.76 -2.83 2.56 -4.59 1.79 c -1.76 -0.77 -2.56 -2.83 -1.78 -4.59 l 5.24 -11.84 c -0.05 0 -0.11 0 -0.16 0 c -8.88 0 -16.07 7.2 -16.07 16.08 c 0 8.87 7.2 16.07 16.07 16.07 c 8.88 0 16.07 -7.2 16.07 -16.07 c 0 -1.56 -0.22 -3.06 -0.63 -4.49 c 0.15 0.11 0.3 0.22 0.46 0.33 c 1.28 0.87 2.76 1.47 4.3 1.72 c 0.9 0.15 1.82 0.19 2.75 0.12 c 0.07 0.76 0.1 1.53 0.1 2.32 c 0 12.72 -10.32 23.05 -23.05 23.05 C 10.32 113.11 0 102.78 0 90.06 c 0 -12.73 10.32 -23.05 23.05 -23.05 c 1.07 0 2.12 0.07 3.16 0.21 l 4.09 -11.11 c 0.47 -1.08 1.43 -1.8 2.51 -2.01 c 2.06 1.97 4.27 3.67 6.31 4.96 c 0.62 0.39 1.5 0.94 2.62 1.63 L 41.25 61.73 L 41.25 61.73 z M 22.13 38.32 h 2.32 c 0.04 1.14 0.2 2.29 0.49 3.43 c 0.6 2.43 1.75 4.76 3.23 6.93 h -6.03 l 0 0 l 0 0 c -1.13 0 -2.17 -0.47 -2.93 -1.22 c -0.77 -0.77 -1.24 -1.82 -1.24 -2.98 l 0 0 l 0 0 v -1.94 l 0 0 l 0 0 c 0 -1.17 0.47 -2.23 1.24 -2.98 C 19.95 38.79 20.99 38.33 22.13 38.32 L 22.13 38.32 L 22.13 38.32 L 22.13 38.32 L 22.13 38.32 z M 98.1 74.07 l 5.59 8.61 c 1.05 1.61 0.59 3.76 -1.02 4.81 c -1.61 1.05 -3.76 0.59 -4.81 -1.02 l -6.53 -10.06 c -4.55 2.84 -7.58 7.89 -7.58 13.65 c 0 8.87 7.2 16.07 16.08 16.07 c 8.88 0 16.08 -7.2 16.08 -16.07 c 0 -8.88 -7.2 -16.08 -16.08 -16.08 C 99.25 73.97 98.67 74.01 98.1 74.07 L 98.1 74.07 L 98.1 74.07 z" stroke-linecap="round"/>
</g>
</svg>