<svg xmlns="http://www.w3.org/2000/svg" xmlns:xlink="http://www.w3.org/1999/xlink" width="500" zoomAndPan="magnify" viewBox="0 0 375 374.999991" height="500" preserveAspectRatio="xMidYMid meet" version="1.0"><defs><g/><clipPath id="38ccdc935b"><path d="M 27.089844 27.089844 L 348.089844 27.089844 L 348.089844 348.089844 L 27.089844 348.089844 Z M 27.089844 27.089844 " clip-rule="nonzero"/></clipPath><clipPath id="5420ba81c8"><path d="M 120 201 L 135 201 L 135 215 L 120 215 Z M 120 201 " clip-rule="nonzero"/></clipPath><clipPath id="181958a2a3"><path d="M 120.652344 201.328125 L 134.140625 200.742188 L 134.722656 214.230469 L 121.238281 214.816406 Z M 120.652344 201.328125 " clip-rule="nonzero"/></clipPath><clipPath id="a305d7ff95"><path d="M 120.652344 201.328125 L 134.140625 200.742188 L 134.722656 214.230469 L 121.238281 214.816406 Z M 120.652344 201.328125 " clip-rule="nonzero"/></clipPath><clipPath id="1581fadaaf"><path d="M 83 250 L 97 250 L 97 265 L 83 265 Z M 83 250 " clip-rule="nonzero"/></clipPath><clipPath id="a573b1c525"><path d="M 96.910156 263.832031 L 83.425781 264.417969 L 82.839844 250.933594 L 96.324219 250.347656 Z M 96.910156 263.832031 " clip-rule="nonzero"/></clipPath><clipPath id="adb217582a"><path d="M 96.910156 263.832031 L 83.425781 264.417969 L 82.839844 250.933594 L 96.324219 250.347656 Z M 96.910156 263.832031 " clip-rule="nonzero"/></clipPath><clipPath id="58d5a8c44a"><path d="M 91 195 L 106 195 L 106 209 L 91 209 Z M 91 195 " clip-rule="nonzero"/></clipPath><clipPath id="54953d3350"><path d="M 91.394531 195.769531 L 104.882812 195.183594 L 105.46875 208.671875 L 91.980469 209.253906 Z M 91.394531 195.769531 " clip-rule="nonzero"/></clipPath><clipPath id="a0889f4860"><path d="M 91.394531 195.769531 L 104.882812 195.183594 L 105.46875 208.671875 L 91.980469 209.253906 Z M 91.394531 195.769531 " clip-rule="nonzero"/></clipPath><clipPath id="8d47e42967"><path d="M 112 256 L 126 256 L 126 270 L 112 270 Z M 112 256 " clip-rule="nonzero"/></clipPath><clipPath id="96a228a45a"><path d="M 126.167969 269.394531 L 112.679688 269.980469 L 112.09375 256.492188 L 125.582031 255.90625 Z M 126.167969 269.394531 " clip-rule="nonzero"/></clipPath><clipPath id="851891a2dc"><path d="M 126.167969 269.394531 L 112.679688 269.980469 L 112.09375 256.492188 L 125.582031 255.90625 Z M 126.167969 269.394531 " clip-rule="nonzero"/></clipPath><clipPath id="d279eebaec"><path d="M 106 191 L 121 191 L 121 206 L 106 206 Z M 106 191 " clip-rule="nonzero"/></clipPath><clipPath id="a0108f7665"><path d="M 106.59375 192.191406 L 120.078125 191.609375 L 120.664062 205.09375 L 107.175781 205.679688 Z M 106.59375 192.191406 " clip-rule="nonzero"/></clipPath><clipPath id="33f5e32377"><path d="M 106.59375 192.191406 L 120.078125 191.609375 L 120.664062 205.09375 L 107.175781 205.679688 Z M 106.59375 192.191406 " clip-rule="nonzero"/></clipPath><clipPath id="0127338556"><path d="M 96 259 L 110 259 L 110 273 L 96 273 Z M 96 259 " clip-rule="nonzero"/></clipPath><clipPath id="49bad1d066"><path d="M 110.058594 272.210938 L 96.570312 272.796875 L 95.984375 259.3125 L 109.472656 258.726562 Z M 110.058594 272.210938 " clip-rule="nonzero"/></clipPath><clipPath id="02d27437f7"><path d="M 110.058594 272.210938 L 96.570312 272.796875 L 95.984375 259.3125 L 109.472656 258.726562 Z M 110.058594 272.210938 " clip-rule="nonzero"/></clipPath><clipPath id="8890e16758"><path d="M 85 209 L 99 209 L 99 223 L 85 223 Z M 85 209 " clip-rule="nonzero"/></clipPath><clipPath id="b8722d2c0b"><path d="M 85.167969 209.703125 L 98.65625 209.117188 L 99.242188 222.601562 L 85.753906 223.1875 Z M 85.167969 209.703125 " clip-rule="nonzero"/></clipPath><clipPath id="b28ca44ccc"><path d="M 85.167969 209.703125 L 98.65625 209.117188 L 99.242188 222.601562 L 85.753906 223.1875 Z M 85.167969 209.703125 " clip-rule="nonzero"/></clipPath><clipPath id="5a6b06c6cd"><path d="M 118 242 L 133 242 L 133 256 L 118 256 Z M 118 242 " clip-rule="nonzero"/></clipPath><clipPath id="8a8173d955"><path d="M 132.394531 255.460938 L 118.90625 256.046875 L 118.320312 242.558594 L 131.808594 241.972656 Z M 132.394531 255.460938 " clip-rule="nonzero"/></clipPath><clipPath id="073a02101e"><path d="M 132.394531 255.460938 L 118.90625 256.046875 L 118.320312 242.558594 L 131.808594 241.972656 Z M 132.394531 255.460938 " clip-rule="nonzero"/></clipPath><clipPath id="9b0e73009e"><path d="M 94 222 L 109 222 L 109 237 L 94 237 Z M 94 222 " clip-rule="nonzero"/></clipPath><clipPath id="06c98c0248"><path d="M 94.265625 222.96875 L 107.753906 222.382812 L 108.339844 235.871094 L 94.851562 236.457031 Z M 94.265625 222.96875 " clip-rule="nonzero"/></clipPath><clipPath id="8ef2c367e1"><path d="M 94.265625 222.96875 L 107.753906 222.382812 L 108.339844 235.871094 L 94.851562 236.457031 Z M 94.265625 222.96875 " clip-rule="nonzero"/></clipPath><clipPath id="262dfc435a"><path d="M 107 231 L 122 231 L 122 245 L 107 245 Z M 107 231 " clip-rule="nonzero"/></clipPath><clipPath id="ece3040db6"><path d="M 121.761719 244.527344 L 108.273438 245.113281 L 107.6875 231.628906 L 121.175781 231.042969 Z M 121.761719 244.527344 " clip-rule="nonzero"/></clipPath><clipPath id="5bdf90a7a3"><path d="M 121.761719 244.527344 L 108.273438 245.113281 L 107.6875 231.628906 L 121.175781 231.042969 Z M 121.761719 244.527344 " clip-rule="nonzero"/></clipPath><clipPath id="5838988c62"><path d="M 304.570312 148.269531 L 375 148.269531 L 375 205.121094 L 304.570312 205.121094 Z M 304.570312 148.269531 " clip-rule="nonzero"/></clipPath></defs><rect x="-37.5" width="450" fill="#ffffff" y="-37.499999" height="449.999989" fill-opacity="1"/><rect x="-37.5" width="450" fill="#ffffff" y="-37.499999" height="449.999989" fill-opacity="1"/><rect x="-37.5" width="450" fill="#ffffff" y="-37.499999" height="449.999989" fill-opacity="1"/><g clip-path="url(#38ccdc935b)"><path fill="#000000" d="M 187.589844 348.089844 C 99.117188 348.089844 27.089844 276.0625 27.089844 187.589844 C 27.089844 99.117188 99.117188 27.089844 187.589844 27.089844 C 276.0625 27.089844 348.089844 99.117188 348.089844 187.589844 C 348.089844 276.0625 276.0625 348.089844 187.589844 348.089844 Z M 187.589844 29.460938 C 100.382812 29.460938 29.460938 100.382812 29.460938 187.589844 C 29.460938 274.796875 100.382812 345.71875 187.589844 345.71875 C 274.796875 345.71875 345.71875 274.796875 345.71875 187.589844 C 345.71875 100.382812 274.796875 29.460938 187.589844 29.460938 Z M 187.589844 29.460938 " fill-opacity="1" fill-rule="nonzero"/></g><g fill="#000000" fill-opacity="1"><g transform="translate(79.630252, 174.136606)"><g><path d="M 15.046875 0 L 15.046875 -66.640625 L 1.375 -66.640625 L 1.375 -74.15625 L 36.96875 -74.15625 L 36.96875 -66.640625 L 23.3125 -66.640625 L 23.3125 0 Z M 15.046875 0 "/></g></g></g><g fill="#000000" fill-opacity="1"><g transform="translate(118.085534, 174.136606)"><g><path d="M 20.765625 -74.15625 C 26.628906 -74.15625 30.847656 -72.707031 33.421875 -69.8125 C 36.003906 -66.914062 37.296875 -62.710938 37.296875 -57.203125 L 37.296875 -51.171875 C 37.296875 -47.066406 36.550781 -43.742188 35.0625 -41.203125 C 33.582031 -38.660156 31.253906 -36.894531 28.078125 -35.90625 C 31.460938 -34.914062 33.859375 -33.097656 35.265625 -30.453125 C 36.679688 -27.804688 37.390625 -24.472656 37.390625 -20.453125 L 37.390625 -8.90625 C 37.390625 -7.28125 37.457031 -5.707031 37.59375 -4.1875 C 37.738281 -2.664062 38.164062 -1.269531 38.875 0 L 30.515625 0 C 30.015625 -1.0625 29.65625 -2.207031 29.4375 -3.4375 C 29.226562 -4.675781 29.125 -6.53125 29.125 -9 L 29.125 -20.65625 C 29.125 -24.820312 28.1875 -27.695312 26.3125 -29.28125 C 24.445312 -30.875 21.785156 -31.671875 18.328125 -31.671875 L 12.5 -31.671875 L 12.5 0 L 4.234375 0 L 4.234375 -74.15625 Z M 18.640625 -39.203125 C 21.960938 -39.203125 24.539062 -39.890625 26.375 -41.265625 C 28.207031 -42.640625 29.125 -45.335938 29.125 -49.359375 L 29.125 -56.46875 C 29.125 -59.851562 28.472656 -62.394531 27.171875 -64.09375 C 25.867188 -65.789062 23.660156 -66.640625 20.546875 -66.640625 L 12.5 -66.640625 L 12.5 -39.203125 Z M 18.640625 -39.203125 "/></g></g></g><g fill="#000000" fill-opacity="1"><g transform="translate(159.82488, 174.136606)"><g><path d="M 12.609375 -14.9375 L 9.75 0 L 2.125 0 L 16.3125 -74.15625 L 28.28125 -74.15625 L 42.484375 0 L 34.21875 0 L 31.359375 -14.9375 Z M 13.671875 -22.03125 L 30.1875 -22.03125 L 21.828125 -64.828125 Z M 13.671875 -22.03125 "/></g></g></g><g fill="#cd0f26" fill-opacity="1"><g transform="translate(204.5404, 174.136606)"><g><path d="M 20.234375 -74.890625 C 25.953125 -74.890625 30.171875 -73.195312 32.890625 -69.8125 C 35.609375 -66.425781 36.96875 -61.90625 36.96875 -56.25 L 36.96875 -49.578125 L 29.125 -49.578125 L 29.125 -56.671875 C 29.125 -60.066406 28.4375 -62.695312 27.0625 -64.5625 C 25.6875 -66.4375 23.484375 -67.375 20.453125 -67.375 C 17.484375 -67.375 15.289062 -66.4375 13.875 -64.5625 C 12.46875 -62.695312 11.765625 -60.066406 11.765625 -56.671875 L 11.765625 -17.484375 C 11.765625 -14.085938 12.46875 -11.453125 13.875 -9.578125 C 15.289062 -7.710938 17.484375 -6.78125 20.453125 -6.78125 C 23.484375 -6.78125 25.6875 -7.710938 27.0625 -9.578125 C 28.4375 -11.453125 29.125 -14.085938 29.125 -17.484375 L 29.125 -27.125 L 36.96875 -27.125 L 36.96875 -17.90625 C 36.96875 -12.25 35.609375 -7.726562 32.890625 -4.34375 C 30.171875 -0.957031 25.953125 0.734375 20.234375 0.734375 C 14.585938 0.734375 10.40625 -0.957031 7.6875 -4.34375 C 4.96875 -7.726562 3.609375 -12.25 3.609375 -17.90625 L 3.609375 -56.25 C 3.609375 -59.070312 3.941406 -61.628906 4.609375 -63.921875 C 5.273438 -66.222656 6.296875 -68.1875 7.671875 -69.8125 C 9.054688 -71.4375 10.789062 -72.6875 12.875 -73.5625 C 14.957031 -74.445312 17.410156 -74.890625 20.234375 -74.890625 Z M 20.234375 -74.890625 "/></g></g></g><g fill="#000000" fill-opacity="1"><g transform="translate(244.806026, 174.136606)"><g><path d="M 16.84375 -32.203125 L 12.5 -24.890625 L 12.5 0 L 4.234375 0 L 4.234375 -74.15625 L 12.5 -74.15625 L 12.5 -38.34375 L 32.203125 -74.15625 L 40.578125 -74.15625 L 21.828125 -40.359375 L 41.203125 0 L 32.734375 0 Z M 16.84375 -32.203125 "/></g></g></g><g fill="#000000" fill-opacity="1"><g transform="translate(288.141961, 174.136606)"><g/></g></g><g fill="#000000" fill-opacity="1"><g transform="translate(87.950564, 270.1366)"><g/></g></g><g fill="#000000" fill-opacity="1"><g transform="translate(104.370866, 270.1366)"><g/></g></g><g fill="#000000" fill-opacity="1"><g transform="translate(120.791169, 270.1366)"><g/></g></g><g fill="#000000" fill-opacity="1"><g transform="translate(137.216186, 270.1366)"><g><path d="M 30.609375 -41.3125 L 30.609375 -33.90625 L 12.5 -33.90625 L 12.5 -7.515625 L 34.75 -7.515625 L 34.75 0 L 4.234375 0 L 4.234375 -74.15625 L 34.75 -74.15625 L 34.75 -66.640625 L 12.5 -66.640625 L 12.5 -41.3125 Z M 30.609375 -41.3125 "/></g></g></g><g fill="#000000" fill-opacity="1"><g transform="translate(175.353653, 270.1366)"><g><path d="M 11.546875 0 L 4.125 0 L 4.125 -74.15625 L 14.625 -74.15625 L 31.78125 -20.546875 L 31.78125 -74.15625 L 39.09375 -74.15625 L 39.09375 0 L 30.515625 0 L 11.546875 -59.953125 Z M 11.546875 0 "/></g></g></g><g fill="#000000" fill-opacity="1"><g transform="translate(218.682058, 270.1366)"><g><path d="M 19.8125 -74.890625 C 25.457031 -74.890625 29.625 -73.210938 32.3125 -69.859375 C 35 -66.503906 36.34375 -62.003906 36.34375 -56.359375 L 36.34375 -54.34375 L 28.5 -54.34375 L 28.5 -56.78125 C 28.5 -60.175781 27.828125 -62.789062 26.484375 -64.625 C 25.140625 -66.457031 22.984375 -67.375 20.015625 -67.375 C 17.054688 -67.375 14.90625 -66.457031 13.5625 -64.625 C 12.21875 -62.789062 11.546875 -60.210938 11.546875 -56.890625 C 11.546875 -54.128906 12.160156 -51.722656 13.390625 -49.671875 C 14.628906 -47.628906 16.164062 -45.742188 18 -44.015625 C 19.84375 -42.285156 21.835938 -40.585938 23.984375 -38.921875 C 26.140625 -37.265625 28.132812 -35.445312 29.96875 -33.46875 C 31.8125 -31.5 33.347656 -29.257812 34.578125 -26.75 C 35.816406 -24.238281 36.4375 -21.253906 36.4375 -17.796875 C 36.4375 -12.148438 35.078125 -7.648438 32.359375 -4.296875 C 29.640625 -0.941406 25.421875 0.734375 19.703125 0.734375 C 13.984375 0.734375 9.78125 -0.941406 7.09375 -4.296875 C 4.414062 -7.648438 3.078125 -12.148438 3.078125 -17.796875 L 3.078125 -22.03125 L 10.8125 -22.03125 L 10.8125 -17.375 C 10.8125 -13.976562 11.515625 -11.363281 12.921875 -9.53125 C 14.335938 -7.695312 16.53125 -6.78125 19.5 -6.78125 C 22.457031 -6.78125 24.640625 -7.695312 26.046875 -9.53125 C 27.460938 -11.363281 28.171875 -13.976562 28.171875 -17.375 C 28.171875 -20.125 27.550781 -22.503906 26.3125 -24.515625 C 25.082031 -26.535156 23.550781 -28.410156 21.71875 -30.140625 C 19.882812 -31.867188 17.90625 -33.5625 15.78125 -35.21875 C 13.664062 -36.882812 11.6875 -38.703125 9.84375 -40.671875 C 8.007812 -42.648438 6.472656 -44.894531 5.234375 -47.40625 C 4.003906 -49.914062 3.390625 -52.898438 3.390625 -56.359375 C 3.390625 -62.078125 4.726562 -66.59375 7.40625 -69.90625 C 10.09375 -73.226562 14.226562 -74.890625 19.8125 -74.890625 Z M 19.8125 -74.890625 "/></g></g></g><g fill="#000000" fill-opacity="1"><g transform="translate(258.090781, 270.1366)"><g><path d="M 30.609375 -41.3125 L 30.609375 -33.90625 L 12.5 -33.90625 L 12.5 -7.515625 L 34.75 -7.515625 L 34.75 0 L 4.234375 0 L 4.234375 -74.15625 L 34.75 -74.15625 L 34.75 -66.640625 L 12.5 -66.640625 L 12.5 -41.3125 Z M 30.609375 -41.3125 "/></g></g></g><g clip-path="url(#5420ba81c8)"><g clip-path="url(#181958a2a3)"><g clip-path="url(#a305d7ff95)"><path fill="#cd0f26" d="M 132.25 202.804688 C 130.921875 201.585938 129.195312 200.957031 127.394531 201.035156 C 123.679688 201.199219 120.78125 204.351562 120.945312 208.074219 C 121.105469 211.792969 124.261719 214.683594 127.980469 214.523438 C 131.699219 214.363281 134.59375 211.207031 134.429688 207.488281 C 134.351562 205.6875 133.578125 204.023438 132.25 202.804688 Z M 132.25 202.804688 " fill-opacity="1" fill-rule="nonzero"/></g></g></g><g clip-path="url(#1581fadaaf)"><g clip-path="url(#a573b1c525)"><g clip-path="url(#adb217582a)"><path fill="#cd0f26" d="M 85.3125 262.359375 C 86.640625 263.578125 88.367188 264.203125 90.167969 264.125 C 93.886719 263.964844 96.78125 260.808594 96.617188 257.089844 C 96.457031 253.371094 93.300781 250.476562 89.582031 250.640625 C 85.863281 250.800781 82.96875 253.957031 83.132812 257.675781 C 83.210938 259.476562 83.984375 261.140625 85.3125 262.359375 Z M 85.3125 262.359375 " fill-opacity="1" fill-rule="nonzero"/></g></g></g><g clip-path="url(#58d5a8c44a)"><g clip-path="url(#54953d3350)"><g clip-path="url(#a0889f4860)"><path fill="#000000" d="M 102.992188 197.242188 C 101.664062 196.023438 99.941406 195.398438 98.136719 195.476562 C 94.421875 195.636719 91.527344 198.792969 91.6875 202.511719 C 91.847656 206.230469 95.003906 209.125 98.722656 208.960938 C 102.445312 208.800781 105.335938 205.644531 105.175781 201.925781 C 105.097656 200.125 104.320312 198.460938 102.992188 197.242188 Z M 102.992188 197.242188 " fill-opacity="1" fill-rule="nonzero"/></g></g></g><g clip-path="url(#8d47e42967)"><g clip-path="url(#96a228a45a)"><g clip-path="url(#851891a2dc)"><path fill="#000000" d="M 114.570312 267.921875 C 115.898438 269.136719 117.621094 269.765625 119.425781 269.6875 C 123.140625 269.527344 126.039062 266.371094 125.875 262.652344 C 125.714844 258.929688 122.558594 256.039062 118.839844 256.199219 C 115.121094 256.363281 112.226562 259.515625 112.386719 263.238281 C 112.464844 265.039062 113.242188 266.703125 114.570312 267.921875 Z M 114.570312 267.921875 " fill-opacity="1" fill-rule="nonzero"/></g></g></g><g clip-path="url(#d279eebaec)"><g clip-path="url(#a0108f7665)"><g clip-path="url(#33f5e32377)"><path fill="#000000" d="M 118.191406 193.667969 C 116.863281 192.449219 115.136719 191.820312 113.335938 191.902344 C 109.617188 192.0625 106.722656 195.21875 106.882812 198.9375 C 107.046875 202.65625 110.203125 205.550781 113.921875 205.386719 C 117.640625 205.226562 120.535156 202.070312 120.371094 198.351562 C 120.292969 196.550781 119.519531 194.886719 118.191406 193.667969 Z M 118.191406 193.667969 " fill-opacity="1" fill-rule="nonzero"/></g></g></g><g clip-path="url(#0127338556)"><g clip-path="url(#49bad1d066)"><g clip-path="url(#02d27437f7)"><path fill="#000000" d="M 98.457031 270.738281 C 99.785156 271.957031 101.511719 272.582031 103.3125 272.503906 C 107.03125 272.34375 109.925781 269.1875 109.765625 265.46875 C 109.601562 261.75 106.449219 258.855469 102.726562 259.019531 C 99.007812 259.179688 96.117188 262.335938 96.277344 266.054688 C 96.355469 267.855469 97.128906 269.519531 98.457031 270.738281 Z M 98.457031 270.738281 " fill-opacity="1" fill-rule="nonzero"/></g></g></g><g clip-path="url(#8890e16758)"><g clip-path="url(#b8722d2c0b)"><g clip-path="url(#b28ca44ccc)"><path fill="#000000" d="M 96.765625 211.175781 C 95.4375 209.957031 93.714844 209.332031 91.910156 209.410156 C 88.195312 209.570312 85.300781 212.726562 85.460938 216.445312 C 85.621094 220.164062 88.777344 223.058594 92.496094 222.894531 C 96.21875 222.734375 99.109375 219.578125 98.949219 215.859375 C 98.871094 214.058594 98.09375 212.394531 96.765625 211.175781 Z M 96.765625 211.175781 " fill-opacity="1" fill-rule="nonzero"/></g></g></g><g clip-path="url(#5a6b06c6cd)"><g clip-path="url(#8a8173d955)"><g clip-path="url(#073a02101e)"><path fill="#000000" d="M 120.796875 253.988281 C 122.125 255.203125 123.847656 255.832031 125.652344 255.753906 C 129.367188 255.59375 132.261719 252.4375 132.101562 248.71875 C 131.941406 245 128.785156 242.105469 125.066406 242.265625 C 121.347656 242.429688 118.453125 245.582031 118.613281 249.304688 C 118.691406 251.105469 119.46875 252.769531 120.796875 253.988281 Z M 120.796875 253.988281 " fill-opacity="1" fill-rule="nonzero"/></g></g></g><g clip-path="url(#9b0e73009e)"><g clip-path="url(#06c98c0248)"><g clip-path="url(#8ef2c367e1)"><path fill="#000000" d="M 105.863281 224.445312 C 104.535156 223.226562 102.8125 222.597656 101.007812 222.675781 C 97.292969 222.839844 94.398438 225.992188 94.558594 229.714844 C 94.71875 233.433594 97.875 236.324219 101.59375 236.164062 C 105.316406 236.003906 108.207031 232.847656 108.046875 229.128906 C 107.96875 227.324219 107.191406 225.660156 105.863281 224.445312 Z M 105.863281 224.445312 " fill-opacity="1" fill-rule="nonzero"/></g></g></g><g clip-path="url(#262dfc435a)"><g clip-path="url(#ece3040db6)"><g clip-path="url(#5bdf90a7a3)"><path fill="#000000" d="M 110.164062 243.054688 C 111.492188 244.273438 113.214844 244.898438 115.019531 244.820312 C 118.734375 244.660156 121.628906 241.503906 121.46875 237.785156 C 121.308594 234.066406 118.152344 231.171875 114.433594 231.335938 C 110.710938 231.496094 107.820312 234.652344 107.980469 238.371094 C 108.058594 240.171875 108.835938 241.835938 110.164062 243.054688 Z M 110.164062 243.054688 " fill-opacity="1" fill-rule="nonzero"/></g></g></g><g clip-path="url(#5838988c62)"><path fill="#ffffff" d="M 304.570312 148.269531 L 417.070312 148.269531 L 417.070312 205.121094 L 304.570312 205.121094 Z M 304.570312 148.269531 " fill-opacity="1" fill-rule="nonzero"/></g></svg>