<?xml version="1.0" standalone="no"?>
<!DOCTYPE svg PUBLIC "-//W3C//DTD SVG 20010904//EN"
 "http://www.w3.org/TR/2001/REC-SVG-20010904/DTD/svg10.dtd">
<svg version="1.0" xmlns="http://www.w3.org/2000/svg"
 width="500.000000pt" height="500.000000pt" viewBox="0 0 500.000000 500.000000"
 preserveAspectRatio="xMidYMid meet">

<g transform="translate(0.000000,500.000000) scale(0.100000,-0.100000)"
fill="#000000" stroke="none">
<path d="M0 2500 l0 -2500 2500 0 2500 0 0 2500 0 2500 -2500 0 -2500 0 0
-2500z m2704 2130 c836 -80 1560 -657 1825 -1457 44 -132 48 -153 29 -153 -8
0 -31 56 -56 133 -101 308 -265 578 -495 814 -409 418 -924 636 -1507 637
-554 0 -1061 -204 -1459 -589 -191 -185 -316 -355 -429 -583 -291 -589 -292
-1275 -2 -1860 113 -227 235 -396 416 -574 176 -173 318 -274 545 -387 586
-292 1282 -291 1864 3 146 74 273 154 378 238 84 66 246 227 317 314 211 256
367 584 436 914 13 63 24 130 24 148 0 29 22 54 35 40 10 -10 -39 -258 -72
-368 -44 -147 -73 -219 -138 -352 -208 -419 -552 -760 -980 -970 -443 -217
-949 -273 -1430 -158 -440 105 -850 357 -1136 699 -615 733 -677 1768 -154
2556 297 447 731 758 1245 894 101 26 251 53 360 64 78 8 282 6 384 -3z
m-1144 -1010 l0 -50 -95 0 -95 0 0 -445 0 -445 -55 0 -55 0 0 445 0 445 -90 0
-90 0 0 50 0 50 240 0 240 0 0 -50z m377 39 c56 -15 104 -61 121 -116 15 -49
16 -224 2 -275 -7 -23 -27 -51 -54 -75 l-43 -37 30 -21 c66 -44 70 -59 78
-248 4 -94 10 -180 14 -189 6 -16 1 -18 -48 -18 l-56 0 -10 38 c-6 20 -11 96
-11 167 0 84 -5 139 -13 155 -19 38 -72 60 -144 60 l-63 0 0 -210 0 -210 -55
0 -55 0 0 495 0 495 131 0 c71 0 151 -5 176 -11z m576 -11 c3 -13 44 -225 91
-473 48 -247 88 -460 91 -472 5 -22 2 -23 -50 -23 -48 0 -55 3 -60 23 -8 34
-35 168 -35 173 0 2 -56 4 -125 4 l-124 0 -7 -37 c-3 -21 -12 -65 -18 -98
l-12 -60 -53 -3 c-51 -3 -53 -2 -48 20 3 13 44 226 92 473 47 248 88 460 90
473 5 20 11 22 84 22 73 0 79 -2 84 -22z m919 -214 l3 -236 130 236 129 236
53 0 c29 0 53 -3 53 -6 0 -4 -51 -100 -114 -213 -63 -113 -117 -213 -121 -222
-3 -9 45 -122 120 -277 69 -144 125 -264 125 -267 0 -3 -25 -5 -56 -5 l-56 0
-101 210 c-56 116 -104 210 -107 210 -3 0 -17 -20 -33 -45 -27 -45 -27 -49
-27 -210 l0 -165 -55 0 -55 0 0 495 0 495 55 0 55 0 2 -236z m-1857 -1019 c64
-63 -1 -177 -85 -150 -94 30 -73 175 25 175 25 0 44 -8 60 -25z m1677 -25 c82
-23 137 -101 146 -208 l5 -63 -54 3 -54 3 -6 59 c-8 71 -37 105 -95 112 -80
10 -128 -48 -121 -149 4 -75 34 -117 156 -222 121 -105 162 -168 169 -263 12
-170 -70 -272 -219 -272 -70 0 -121 19 -159 59 -43 45 -60 97 -60 180 l0 61
50 0 50 0 0 -50 c0 -66 21 -115 59 -134 96 -50 180 23 169 145 -7 67 -40 112
-155 212 -124 107 -164 168 -171 265 -7 103 21 184 81 231 46 37 138 50 209
31z m-1877 -25 c31 -30 33 -82 4 -119 -16 -20 -29 -26 -60 -26 -54 0 -75 13
-88 53 -30 89 79 158 144 92z m915 -25 l0 -50 -145 0 -145 0 0 -170 0 -170
120 0 120 0 0 -50 0 -50 -120 0 -120 0 0 -175 0 -175 145 0 145 0 0 -50 0 -50
-200 0 -200 0 0 495 0 495 200 0 200 0 0 -50z m355 -300 l110 -344 3 347 2
347 50 0 50 0 0 -495 0 -495 -58 0 -58 0 -125 393 -124 392 -3 -392 -2 -393
-50 0 -50 0 0 495 0 496 72 -3 72 -3 111 -345z m1265 300 l0 -50 -150 0 -150
0 0 -170 0 -170 120 0 120 0 0 -50 0 -50 -120 0 -120 0 0 -175 0 -175 150 0
150 0 0 -50 0 -50 -205 0 -205 0 0 495 0 495 205 0 205 0 0 -50z m-2639 -145
c55 -29 64 -92 20 -136 -41 -41 -90 -40 -125 2 -30 35 -33 74 -10 107 28 41
69 50 115 27z m140 -194 c57 -58 21 -146 -60 -146 -50 0 -79 26 -88 78 -5 31
-1 40 25 67 41 40 83 41 123 1z m176 -106 c44 -31 35 -131 -12 -149 -32 -12
-83 -6 -106 13 -34 28 -34 104 0 132 28 23 88 25 118 4z m144 -154 c39 -40 39
-82 0 -122 -35 -35 -77 -38 -114 -9 -67 53 -26 159 61 160 13 0 37 -13 53 -29z
m-83 -183 c30 -33 36 -70 18 -106 -18 -34 -33 -42 -86 -42 -47 0 -80 35 -80
87 0 73 98 113 148 61z m-211 -40 c32 -30 32 -90 -2 -123 -32 -33 -89 -34
-122 -3 -31 29 -32 92 -1 125 29 31 92 32 125 1z"/>
<path d="M1740 3384 l0 -187 76 6 c82 6 119 23 134 63 16 41 12 221 -5 253
-18 36 -60 51 -141 51 l-64 0 0 -186z"/>
<path d="M2421 3528 c0 -3 -23 -124 -51 -268 -27 -144 -50 -268 -50 -276 0
-11 22 -14 105 -14 94 0 105 2 104 18 0 20 -106 550 -108 540z"/>
</g>
</svg>
