<svg version="1.1" id="Layer_1" xmlns="http://www.w3.org/2000/svg" xmlns:xlink="http://www.w3.org/1999/xlink" x="0px" y="0px"
	 width="100%" viewBox="0 0 500 500" enable-background="new 0 0 500 500" xml:space="preserve">
<path fill="#010101" opacity="1.000000" stroke="none" 
	d="
M1.000000,194.000000 
	C1.000000,129.349350 1.000000,65.198708 1.000000,1.024032 
	C167.609024,1.024032 334.218048,1.024032 500.913544,1.024032 
	C500.913544,167.567368 500.913544,334.134796 500.913544,500.851135 
	C334.333435,500.851135 167.666733,500.851135 1.000000,500.851135 
	C1.000000,398.781830 1.000000,296.640900 1.000000,194.000000 
M176.082520,451.316956 
	C319.195190,503.903595 454.841797,397.257355 463.227600,272.794556 
	C461.697571,274.702637 460.631561,275.531952 460.277771,276.597687 
	C459.817627,277.983765 460.010162,279.571655 459.772980,281.048767 
	C450.009125,341.861053 420.251068,390.509857 369.299500,425.051727 
	C315.587097,461.465271 256.492706,471.242279 193.968063,453.759338 
	C85.865395,423.532166 21.392975,314.733063 45.133572,205.733002 
	C70.129761,90.968132 185.877197,18.451225 299.950928,46.179592 
	C359.502014,60.654922 404.192627,95.365166 434.819794,148.289169 
	C443.345337,163.021393 449.608215,178.736252 454.060822,195.170563 
	C455.040161,198.785263 455.097595,198.769699 458.721985,198.097229 
	C455.627808,189.076813 453.189575,179.865311 449.399719,171.248245 
	C414.526550,91.956711 354.214966,46.744762 267.822754,37.849075 
	C225.423950,33.483326 185.292892,42.888050 148.122894,63.422916 
	C69.821823,106.680946 23.983315,194.134476 40.132504,285.530273 
	C54.243961,365.393585 100.438461,420.259430 176.082520,451.316956 
M270.574524,312.830780 
	C265.558380,297.178497 260.572784,281.516235 255.473557,265.891052 
	C255.017593,264.493896 253.920746,262.334778 252.957092,262.242279 
	C248.756546,261.838989 244.495193,262.068939 240.365662,262.068939 
	C240.365662,295.438293 240.365662,328.021179 240.365662,360.773834 
	C243.667236,360.773834 246.735672,360.773834 250.167480,360.773834 
	C250.167480,335.062897 250.167480,309.584808 250.167480,284.106750 
	C250.434921,284.060272 250.702362,284.013824 250.969818,283.967377 
	C259.112152,309.638367 267.254517,335.309326 275.324188,360.751282 
	C279.451141,360.751282 283.049164,360.751282 286.677734,360.751282 
	C286.677734,327.780731 286.677734,295.069489 286.677734,262.389404 
	C283.339050,262.389404 280.289948,262.389404 276.933563,262.389404 
	C276.933563,285.251587 276.933563,307.772095 276.933563,330.292572 
	C276.685547,330.339081 276.437531,330.385559 276.189514,330.432037 
	C274.407532,324.814972 272.625580,319.197906 270.574524,312.830780 
M177.688690,190.886353 
	C179.688004,190.896667 181.688705,190.862671 183.686417,190.924881 
	C193.060532,191.216690 196.942520,195.078033 197.152298,204.501877 
	C197.278336,210.164322 197.164688,215.831711 197.211136,221.496445 
	C197.305161,232.960678 197.810928,233.435806 209.122025,232.941498 
	C209.388214,232.929871 209.642365,232.642471 209.764832,232.567627 
	C209.397537,230.377914 208.802063,228.267349 208.730621,226.139221 
	C208.490387,218.982513 208.473618,211.818680 208.302109,204.659225 
	C208.102005,196.306213 206.057632,188.920105 196.456390,185.075378 
	C203.269409,182.287201 206.980698,177.702942 207.519913,171.609528 
	C208.162018,164.353531 208.307358,156.927887 207.506104,149.704620 
	C206.676758,142.228165 202.338455,136.168259 194.471069,135.210709 
	C184.512039,133.998581 174.392181,134.107925 164.405609,133.650269 
	C164.405609,167.421127 164.405609,200.144196 164.405609,232.692505 
	C168.177444,232.692505 171.597855,232.692505 175.157333,232.692505 
	C175.157333,220.058609 175.102921,207.739014 175.227386,195.421204 
	C175.242645,193.909943 176.215164,192.408356 177.688690,190.886353 
M344.157623,207.629059 
	C343.027252,201.059326 346.060242,195.970856 350.005615,190.578171 
	C351.160217,192.802307 352.091187,194.523499 352.957703,196.276581 
	C358.476685,207.442154 364.062744,218.575943 369.427307,229.815384 
	C370.605774,232.284470 371.937866,233.375336 374.704834,233.063278 
	C377.072815,232.796234 379.494843,233.008011 382.519073,233.008011 
	C374.251831,215.819641 366.399231,199.358551 358.388489,182.974792 
	C357.098602,180.336700 357.015533,178.313950 358.529785,175.663376 
	C365.619293,163.253540 372.466553,150.705185 379.378937,138.194473 
	C380.049438,136.980927 380.572693,135.686035 381.343689,134.047745 
	C379.493408,134.047745 378.298492,134.224136 377.173950,134.017593 
	C371.970520,133.061890 369.302917,135.447220 366.950409,140.041672 
	C360.589996,152.463593 353.635620,164.581726 346.890411,176.805756 
	C346.259552,177.949020 345.441162,178.988800 343.925781,181.242905 
	C343.925781,164.598328 343.925781,149.495728 343.925781,134.312439 
	C340.229553,134.312439 336.827515,134.312439 333.345581,134.312439 
	C333.345581,167.297638 333.345581,200.017426 333.345581,232.751236 
	C337.048798,232.751236 340.466919,232.751236 344.157623,232.751236 
	C344.157623,224.530289 344.157623,216.563171 344.157623,207.629059 
M257.761261,163.686523 
	C255.815659,153.812668 253.870071,143.938797 251.942169,134.154663 
	C246.345612,134.154663 241.361526,134.154663 235.946213,134.154663 
	C229.658798,166.970337 223.376007,199.761948 217.046692,232.796265 
	C220.508835,232.796265 223.774933,232.796265 227.280884,232.796265 
	C228.593185,226.199722 229.878723,219.737625 231.167191,213.260895 
	C239.595886,213.260895 247.723587,213.260895 255.955933,213.260895 
	C257.283844,219.904343 258.580811,226.392868 259.863739,232.811310 
	C263.726929,232.811310 267.193542,232.811310 270.924835,232.811310 
	C268.713959,221.333221 266.533783,210.097916 264.388916,198.855865 
	C262.206512,187.417221 260.058838,175.971970 257.761261,163.686523 
M297.279205,290.891876 
	C298.879944,299.756561 304.328735,306.124481 310.822540,311.831177 
	C315.196533,315.675018 319.735809,319.361481 323.826172,323.489868 
	C329.371490,329.086792 331.397827,335.885406 329.238342,343.664673 
	C327.679535,349.280182 324.058746,351.993286 318.315155,351.916260 
	C312.726105,351.841278 309.100128,349.306641 307.864807,343.791107 
	C307.007385,339.962830 306.975586,335.949615 306.561676,331.888977 
	C303.343994,331.888977 300.105164,331.888977 296.366699,331.888977 
	C296.638397,336.334045 296.543091,340.511414 297.209198,344.563660 
	C298.995972,355.433807 306.241089,361.629059 317.062103,361.977478 
	C329.928162,362.391754 337.319885,357.294220 340.100220,346.011597 
	C343.559631,331.973236 338.576752,320.938293 327.938354,311.892334 
	C323.375366,308.012390 318.718903,304.209503 314.464294,300.007721 
	C308.883575,294.496307 306.666534,287.725220 308.539856,279.916809 
	C310.025940,273.722565 313.960602,270.812531 320.055054,271.245575 
	C325.854492,271.657684 329.245056,274.961975 330.044220,281.114197 
	C330.358398,283.532776 330.478577,285.976562 330.678528,288.309326 
	C334.356598,288.309326 337.580597,288.309326 340.841553,288.309326 
	C340.841553,285.792023 341.030457,283.614960 340.810852,281.479950 
	C339.409668,267.857178 331.386292,260.743591 317.930298,261.079498 
	C305.459259,261.390839 297.806824,269.226654 297.086609,282.526459 
	C296.951904,285.014313 297.124329,287.518768 297.279205,290.891876 
M320.339813,196.919540 
	C317.912659,196.919540 315.485504,196.919540 313.098907,196.919540 
	C312.734772,203.159561 312.630493,208.653549 312.040253,214.094833 
	C311.349640,220.461578 307.161591,223.977341 300.950043,223.942657 
	C294.800171,223.908295 290.135193,220.313126 290.024658,213.953827 
	C289.674652,193.816254 289.639282,173.664948 289.994690,153.528015 
	C290.113953,146.770233 294.794159,143.100235 301.085968,143.134995 
	C307.417267,143.169968 311.386108,146.845871 312.133148,153.641846 
	C312.600800,157.896469 312.774567,162.183395 313.094727,166.659439 
	C316.415558,166.659439 319.481232,166.659439 323.407654,166.659439 
	C322.923218,160.571701 323.052002,154.708069 321.885254,149.114670 
	C319.588806,138.105667 311.342163,132.565201 299.326355,133.101654 
	C288.184662,133.599091 279.596497,140.493622 279.240967,151.468658 
	C278.551270,172.759628 278.559540,194.102783 279.213623,215.395569 
	C279.553406,226.456650 287.741425,233.358047 298.530548,233.953583 
	C311.283478,234.657501 319.682709,229.232620 321.888184,217.799515 
	C323.071564,211.664856 322.730347,205.227615 322.917328,198.922180 
	C322.936279,198.282974 321.851135,197.611008 320.339813,196.919540 
M193.798141,262.049957 
	C192.525009,262.121063 191.251877,262.192139 189.877686,262.268890 
	C189.877686,295.296295 189.877686,328.029755 189.877686,360.833557 
	C203.387604,360.833557 216.662628,360.833557 230.135574,360.833557 
	C230.135574,357.553314 230.135574,354.445404 230.135574,350.938477 
	C220.372055,350.938477 210.789200,350.938477 201.014297,350.938477 
	C201.014297,339.146027 201.014297,327.752197 201.014297,315.759369 
	C209.047180,315.759369 216.922974,315.759369 224.701691,315.759369 
	C224.701691,312.212067 224.701691,309.268829 224.701691,305.913239 
	C216.746826,305.913239 208.999390,305.913239 201.148804,305.913239 
	C201.148804,294.466309 201.148804,283.444946 201.148804,271.940063 
	C211.020157,271.940063 220.562698,271.940063 230.005127,271.940063 
	C230.005127,268.370575 230.005127,265.299500 230.005127,262.049957 
	C218.030991,262.049957 206.385193,262.049957 193.798141,262.049957 
M368.604797,272.138885 
	C376.198914,272.138885 383.793030,272.138885 391.383881,272.138885 
	C391.383881,268.432953 391.383881,265.370300 391.383881,262.285645 
	C377.798492,262.285645 364.544678,262.285645 351.141235,262.285645 
	C351.141235,295.227295 351.141235,327.935730 351.141235,360.660828 
	C364.737671,360.660828 378.106384,360.660828 391.349548,360.660828 
	C391.349548,357.249176 391.349548,354.196869 391.349548,350.783356 
	C381.397095,350.783356 371.806213,350.783356 362.226868,350.783356 
	C362.226868,339.001709 362.226868,327.595062 362.226868,315.798523 
	C370.223846,315.798523 377.970734,315.798523 385.810791,315.798523 
	C385.810791,312.335327 385.810791,309.270996 385.810791,305.820648 
	C377.811340,305.820648 370.064087,305.820648 362.330109,305.820648 
	C362.330109,294.391022 362.330109,283.357483 362.330109,272.138885 
	C364.337769,272.138885 365.986877,272.138885 368.604797,272.138885 
M143.557831,144.146820 
	C147.824615,144.146820 152.091385,144.146820 156.363022,144.146820 
	C156.363022,140.441864 156.363022,137.376175 156.363022,134.331665 
	C140.461700,134.331665 124.887924,134.331665 109.299271,134.331665 
	C109.299271,137.701324 109.299271,140.779755 109.299271,144.259537 
	C115.312119,144.259537 121.066170,144.259537 127.305801,144.259537 
	C127.305801,174.047592 127.305801,203.427277 127.305801,232.740448 
	C131.227432,232.740448 134.647858,232.740448 138.375824,232.740448 
	C138.375824,203.196198 138.375824,173.919281 138.375824,144.393738 
	C139.978394,144.299500 141.276245,144.223175 143.557831,144.146820 
M131.581467,293.872467 
	C134.601562,286.301758 130.297913,279.388123 123.117577,280.337219 
	C118.930290,280.890686 115.994102,283.154419 115.161728,287.362701 
	C114.341217,291.511017 115.879242,295.038300 119.652306,296.969666 
	C123.949577,299.169434 127.972397,298.466309 131.581467,293.872467 
M158.299896,326.236481 
	C162.500443,323.566284 164.051056,319.943604 162.201065,315.161591 
	C160.595291,311.010803 157.441849,309.504181 153.123459,309.768829 
	C148.590927,310.046539 146.113297,312.687103 145.170181,316.756897 
	C143.597565,323.543182 149.054947,327.811188 158.299896,326.236481 
M170.032974,341.860809 
	C176.213455,339.168091 178.573059,334.551300 176.343048,329.514679 
	C174.430023,325.193970 170.277695,323.230011 165.767578,324.512756 
	C161.444931,325.742218 158.829895,329.504730 159.296310,333.823792 
	C159.858582,339.030640 163.040131,341.633820 170.032974,341.860809 
M174.542130,269.642670 
	C169.839767,268.232941 165.900757,269.406097 163.463364,273.688446 
	C161.388809,277.333313 161.943939,281.082306 164.825912,284.204315 
	C168.492050,288.175873 174.360794,287.969879 177.936050,283.891388 
	C181.737732,279.554596 180.700867,274.187134 174.542130,269.642670 
M127.610634,309.634644 
	C128.915924,313.521820 131.756821,316.090759 135.684647,315.607727 
	C138.472000,315.264984 141.732269,313.625519 143.520218,311.502625 
	C146.207397,308.311981 145.595840,304.294067 142.804169,301.054291 
	C140.167740,297.994690 136.655457,296.999786 132.945343,298.545044 
	C128.473282,300.407684 126.407784,303.928284 127.610634,309.634644 
M161.206253,342.929596 
	C156.963913,342.450745 153.168854,343.746277 151.943954,347.875488 
	C151.146729,350.562927 151.468414,354.188263 152.682159,356.727417 
	C154.613617,360.768097 158.890274,360.879639 162.764954,359.930878 
	C166.576859,358.997498 168.580353,356.008057 168.695312,352.223236 
	C168.834930,347.626678 166.780426,344.235718 161.206253,342.929596 
M137.757278,263.532593 
	C133.610367,260.996368 129.504654,260.987396 125.898010,264.344757 
	C122.686081,267.334656 122.659637,271.260651 124.418030,274.914490 
	C126.456558,279.150482 130.416794,279.852661 134.648849,279.068665 
	C141.199402,277.855164 143.001068,270.471527 137.757278,263.532593 
M143.898087,267.192352 
	C145.405701,269.413055 146.450058,272.344696 148.524078,273.696167 
	C152.079819,276.013153 155.965149,275.010468 158.939056,271.978638 
	C162.004227,268.853729 161.963608,265.032898 160.138260,261.380127 
	C158.158478,257.418274 154.409195,256.211914 150.404495,257.178955 
	C145.869019,258.274109 143.419159,261.441956 143.898087,267.192352 
M129.676682,345.983185 
	C130.030304,341.632721 128.966980,337.418365 124.549805,336.298035 
	C121.609367,335.552246 117.659439,336.282410 114.947830,337.777954 
	C111.623596,339.611359 110.754639,343.894287 112.583046,347.058929 
	C114.045029,349.589447 117.084900,352.064453 119.879333,352.774963 
	C124.448288,353.936646 127.775421,351.177124 129.676682,345.983185 
M143.228210,347.867371 
	C138.715546,345.857849 133.846268,345.602509 131.449158,350.190155 
	C129.981339,352.999329 130.157150,357.695190 131.495056,360.696777 
	C133.406647,364.985504 140.416962,365.361359 144.112000,362.261841 
	C148.206055,358.827637 148.124908,353.040009 143.228210,347.867371 
z"/>
<path fill="#ECECEC" opacity="1.000000" stroke="none" 
	d="
M175.711029,451.198547 
	C100.438461,420.259430 54.243961,365.393585 40.132504,285.530273 
	C23.983315,194.134476 69.821823,106.680946 148.122894,63.422916 
	C185.292892,42.888050 225.423950,33.483326 267.822754,37.849075 
	C354.214966,46.744762 414.526550,91.956711 449.399719,171.248245 
	C453.189575,179.865311 455.627808,189.076813 458.721985,198.097229 
	C455.097595,198.769699 455.040161,198.785263 454.060822,195.170563 
	C449.608215,178.736252 443.345337,163.021393 434.819794,148.289169 
	C404.192627,95.365166 359.502014,60.654922 299.950928,46.179592 
	C185.877197,18.451225 70.129761,90.968132 45.133572,205.733002 
	C21.392975,314.733063 85.865395,423.532166 193.968063,453.759338 
	C256.492706,471.242279 315.587097,461.465271 369.299500,425.051727 
	C420.251068,390.509857 450.009125,341.861053 459.772980,281.048767 
	C460.010162,279.571655 459.817627,277.983765 460.277771,276.597687 
	C460.631561,275.531952 461.697571,274.702637 463.227600,272.794556 
	C454.841797,397.257355 319.195190,503.903595 175.711029,451.198547 
z"/>
<path fill="#F9F9F9" opacity="1.000000" stroke="none" 
	d="
M270.709076,313.205811 
	C272.625580,319.197906 274.407532,324.814972 276.189514,330.432037 
	C276.437531,330.385559 276.685547,330.339081 276.933563,330.292572 
	C276.933563,307.772095 276.933563,285.251587 276.933563,262.389404 
	C280.289948,262.389404 283.339050,262.389404 286.677734,262.389404 
	C286.677734,295.069489 286.677734,327.780731 286.677734,360.751282 
	C283.049164,360.751282 279.451141,360.751282 275.324188,360.751282 
	C267.254517,335.309326 259.112152,309.638367 250.969818,283.967377 
	C250.702362,284.013824 250.434921,284.060272 250.167480,284.106750 
	C250.167480,309.584808 250.167480,335.062897 250.167480,360.773834 
	C246.735672,360.773834 243.667236,360.773834 240.365662,360.773834 
	C240.365662,328.021179 240.365662,295.438293 240.365662,262.068939 
	C244.495193,262.068939 248.756546,261.838989 252.957092,262.242279 
	C253.920746,262.334778 255.017593,264.493896 255.473557,265.891052 
	C260.572784,281.516235 265.558380,297.178497 270.709076,313.205811 
z"/>
<path fill="#FAFAFA" opacity="1.000000" stroke="none" 
	d="
M177.216370,190.894318 
	C176.215164,192.408356 175.242645,193.909943 175.227386,195.421204 
	C175.102921,207.739014 175.157333,220.058609 175.157333,232.692505 
	C171.597855,232.692505 168.177444,232.692505 164.405609,232.692505 
	C164.405609,200.144196 164.405609,167.421127 164.405609,133.650269 
	C174.392181,134.107925 184.512039,133.998581 194.471069,135.210709 
	C202.338455,136.168259 206.676758,142.228165 207.506104,149.704620 
	C208.307358,156.927887 208.162018,164.353531 207.519913,171.609528 
	C206.980698,177.702942 203.269409,182.287201 196.456390,185.075378 
	C206.057632,188.920105 208.102005,196.306213 208.302109,204.659225 
	C208.473618,211.818680 208.490387,218.982513 208.730621,226.139221 
	C208.802063,228.267349 209.397537,230.377914 209.764832,232.567627 
	C209.642365,232.642471 209.388214,232.929871 209.122025,232.941498 
	C197.810928,233.435806 197.305161,232.960678 197.211136,221.496445 
	C197.164688,215.831711 197.278336,210.164322 197.152298,204.501877 
	C196.942520,195.078033 193.060532,191.216690 183.686417,190.924881 
	C181.688705,190.862671 179.688004,190.896667 177.216370,190.894318 
M197.216217,160.555298 
	C197.698776,146.368759 194.217865,142.175674 175.456421,144.787781 
	C175.456421,156.665375 175.456421,168.537247 175.456421,180.369308 
	C193.369202,182.310638 197.213821,178.926758 197.216217,160.555298 
z"/>
<path fill="#FAFAFA" opacity="1.000000" stroke="none" 
	d="
M344.157623,208.112549 
	C344.157623,216.563171 344.157623,224.530289 344.157623,232.751236 
	C340.466919,232.751236 337.048798,232.751236 333.345581,232.751236 
	C333.345581,200.017426 333.345581,167.297638 333.345581,134.312439 
	C336.827515,134.312439 340.229553,134.312439 343.925781,134.312439 
	C343.925781,149.495728 343.925781,164.598328 343.925781,181.242905 
	C345.441162,178.988800 346.259552,177.949020 346.890411,176.805756 
	C353.635620,164.581726 360.589996,152.463593 366.950409,140.041672 
	C369.302917,135.447220 371.970520,133.061890 377.173950,134.017593 
	C378.298492,134.224136 379.493408,134.047745 381.343689,134.047745 
	C380.572693,135.686035 380.049438,136.980927 379.378937,138.194473 
	C372.466553,150.705185 365.619293,163.253540 358.529785,175.663376 
	C357.015533,178.313950 357.098602,180.336700 358.388489,182.974792 
	C366.399231,199.358551 374.251831,215.819641 382.519073,233.008011 
	C379.494843,233.008011 377.072815,232.796234 374.704834,233.063278 
	C371.937866,233.375336 370.605774,232.284470 369.427307,229.815384 
	C364.062744,218.575943 358.476685,207.442154 352.957703,196.276581 
	C352.091187,194.523499 351.160217,192.802307 350.005615,190.578171 
	C346.060242,195.970856 343.027252,201.059326 344.157623,208.112549 
z"/>
<path fill="#F9F9F9" opacity="1.000000" stroke="none" 
	d="
M257.828613,164.108063 
	C260.058838,175.971970 262.206512,187.417221 264.388916,198.855865 
	C266.533783,210.097916 268.713959,221.333221 270.924835,232.811310 
	C267.193542,232.811310 263.726929,232.811310 259.863739,232.811310 
	C258.580811,226.392868 257.283844,219.904343 255.955933,213.260895 
	C247.723587,213.260895 239.595886,213.260895 231.167191,213.260895 
	C229.878723,219.737625 228.593185,226.199722 227.280884,232.796265 
	C223.774933,232.796265 220.508835,232.796265 217.046692,232.796265 
	C223.376007,199.761948 229.658798,166.970337 235.946213,134.154663 
	C241.361526,134.154663 246.345612,134.154663 251.942169,134.154663 
	C253.870071,143.938797 255.815659,153.812668 257.828613,164.108063 
M247.884613,169.660629 
	C246.481262,162.710342 245.077927,155.760056 243.674591,148.809769 
	C243.432205,148.813461 243.189804,148.817154 242.947418,148.820862 
	C239.510239,166.943924 236.073059,185.066986 232.593369,203.414169 
	C240.237411,203.414169 247.006485,203.414169 254.362183,203.414169 
	C252.206741,192.243958 250.109116,181.373444 247.884613,169.660629 
z"/>
<path fill="#F8F8F8" opacity="1.000000" stroke="none" 
	d="
M297.217102,290.453735 
	C297.124329,287.518768 296.951904,285.014313 297.086609,282.526459 
	C297.806824,269.226654 305.459259,261.390839 317.930298,261.079498 
	C331.386292,260.743591 339.409668,267.857178 340.810852,281.479950 
	C341.030457,283.614960 340.841553,285.792023 340.841553,288.309326 
	C337.580597,288.309326 334.356598,288.309326 330.678528,288.309326 
	C330.478577,285.976562 330.358398,283.532776 330.044220,281.114197 
	C329.245056,274.961975 325.854492,271.657684 320.055054,271.245575 
	C313.960602,270.812531 310.025940,273.722565 308.539856,279.916809 
	C306.666534,287.725220 308.883575,294.496307 314.464294,300.007721 
	C318.718903,304.209503 323.375366,308.012390 327.938354,311.892334 
	C338.576752,320.938293 343.559631,331.973236 340.100220,346.011597 
	C337.319885,357.294220 329.928162,362.391754 317.062103,361.977478 
	C306.241089,361.629059 298.995972,355.433807 297.209198,344.563660 
	C296.543091,340.511414 296.638397,336.334045 296.366699,331.888977 
	C300.105164,331.888977 303.343994,331.888977 306.561676,331.888977 
	C306.975586,335.949615 307.007385,339.962830 307.864807,343.791107 
	C309.100128,349.306641 312.726105,351.841278 318.315155,351.916260 
	C324.058746,351.993286 327.679535,349.280182 329.238342,343.664673 
	C331.397827,335.885406 329.371490,329.086792 323.826172,323.489868 
	C319.735809,319.361481 315.196533,315.675018 310.822540,311.831177 
	C304.328735,306.124481 298.879944,299.756561 297.217102,290.453735 
z"/>
<path fill="#CA0F25" opacity="1.000000" stroke="none" 
	d="
M320.809082,196.936890 
	C321.851135,197.611008 322.936279,198.282974 322.917328,198.922180 
	C322.730347,205.227615 323.071564,211.664856 321.888184,217.799515 
	C319.682709,229.232620 311.283478,234.657501 298.530548,233.953583 
	C287.741425,233.358047 279.553406,226.456650 279.213623,215.395569 
	C278.559540,194.102783 278.551270,172.759628 279.240967,151.468658 
	C279.596497,140.493622 288.184662,133.599091 299.326355,133.101654 
	C311.342163,132.565201 319.588806,138.105667 321.885254,149.114670 
	C323.052002,154.708069 322.923218,160.571701 323.407654,166.659439 
	C319.481232,166.659439 316.415558,166.659439 313.094727,166.659439 
	C312.774567,162.183395 312.600800,157.896469 312.133148,153.641846 
	C311.386108,146.845871 307.417267,143.169968 301.085968,143.134995 
	C294.794159,143.100235 290.113953,146.770233 289.994690,153.528015 
	C289.639282,173.664948 289.674652,193.816254 290.024658,213.953827 
	C290.135193,220.313126 294.800171,223.908295 300.950043,223.942657 
	C307.161591,223.977341 311.349640,220.461578 312.040253,214.094833 
	C312.630493,208.653549 312.734772,203.159561 313.098907,196.919540 
	C315.485504,196.919540 317.912659,196.919540 320.809082,196.936890 
z"/>
<path fill="#FBFBFB" opacity="1.000000" stroke="none" 
	d="
M194.268768,262.049957 
	C206.385193,262.049957 218.030991,262.049957 230.005127,262.049957 
	C230.005127,265.299500 230.005127,268.370575 230.005127,271.940063 
	C220.562698,271.940063 211.020157,271.940063 201.148804,271.940063 
	C201.148804,283.444946 201.148804,294.466309 201.148804,305.913239 
	C208.999390,305.913239 216.746826,305.913239 224.701691,305.913239 
	C224.701691,309.268829 224.701691,312.212067 224.701691,315.759369 
	C216.922974,315.759369 209.047180,315.759369 201.014297,315.759369 
	C201.014297,327.752197 201.014297,339.146027 201.014297,350.938477 
	C210.789200,350.938477 220.372055,350.938477 230.135574,350.938477 
	C230.135574,354.445404 230.135574,357.553314 230.135574,360.833557 
	C216.662628,360.833557 203.387604,360.833557 189.877686,360.833557 
	C189.877686,328.029755 189.877686,295.296295 189.877686,262.268890 
	C191.251877,262.192139 192.525009,262.121063 194.268768,262.049957 
z"/>
<path fill="#FCFCFC" opacity="1.000000" stroke="none" 
	d="
M368.120392,272.138885 
	C365.986877,272.138885 364.337769,272.138885 362.330109,272.138885 
	C362.330109,283.357483 362.330109,294.391022 362.330109,305.820648 
	C370.064087,305.820648 377.811340,305.820648 385.810791,305.820648 
	C385.810791,309.270996 385.810791,312.335327 385.810791,315.798523 
	C377.970734,315.798523 370.223846,315.798523 362.226868,315.798523 
	C362.226868,327.595062 362.226868,339.001709 362.226868,350.783356 
	C371.806213,350.783356 381.397095,350.783356 391.349548,350.783356 
	C391.349548,354.196869 391.349548,357.249176 391.349548,360.660828 
	C378.106384,360.660828 364.737671,360.660828 351.141235,360.660828 
	C351.141235,327.935730 351.141235,295.227295 351.141235,262.285645 
	C364.544678,262.285645 377.798492,262.285645 391.383881,262.285645 
	C391.383881,265.370300 391.383881,268.432953 391.383881,272.138885 
	C383.793030,272.138885 376.198914,272.138885 368.120392,272.138885 
z"/>
<path fill="#F9F9F9" opacity="1.000000" stroke="none" 
	d="
M143.065948,144.146835 
	C141.276245,144.223175 139.978394,144.299500 138.375824,144.393738 
	C138.375824,173.919281 138.375824,203.196198 138.375824,232.740448 
	C134.647858,232.740448 131.227432,232.740448 127.305801,232.740448 
	C127.305801,203.427277 127.305801,174.047592 127.305801,144.259537 
	C121.066170,144.259537 115.312119,144.259537 109.299271,144.259537 
	C109.299271,140.779755 109.299271,137.701324 109.299271,134.331665 
	C124.887924,134.331665 140.461700,134.331665 156.363022,134.331665 
	C156.363022,137.376175 156.363022,140.441864 156.363022,144.146820 
	C152.091385,144.146820 147.824615,144.146820 143.065948,144.146835 
z"/>
<path fill="#F8F8F8" opacity="1.000000" stroke="none" 
	d="
M131.346466,294.182251 
	C127.972397,298.466309 123.949577,299.169434 119.652306,296.969666 
	C115.879242,295.038300 114.341217,291.511017 115.161728,287.362701 
	C115.994102,283.154419 118.930290,280.890686 123.117577,280.337219 
	C130.297913,279.388123 134.601562,286.301758 131.346466,294.182251 
z"/>
<path fill="#F8F8F8" opacity="1.000000" stroke="none" 
	d="
M157.965332,326.461456 
	C149.054947,327.811188 143.597565,323.543182 145.170181,316.756897 
	C146.113297,312.687103 148.590927,310.046539 153.123459,309.768829 
	C157.441849,309.504181 160.595291,311.010803 162.201065,315.161591 
	C164.051056,319.943604 162.500443,323.566284 157.965332,326.461456 
z"/>
<path fill="#F8F8F8" opacity="1.000000" stroke="none" 
	d="
M169.635971,341.909912 
	C163.040131,341.633820 159.858582,339.030640 159.296310,333.823792 
	C158.829895,329.504730 161.444931,325.742218 165.767578,324.512756 
	C170.277695,323.230011 174.430023,325.193970 176.343048,329.514679 
	C178.573059,334.551300 176.213455,339.168091 169.635971,341.909912 
z"/>
<path fill="#C70F25" opacity="1.000000" stroke="none" 
	d="
M174.894974,269.808899 
	C180.700867,274.187134 181.737732,279.554596 177.936050,283.891388 
	C174.360794,287.969879 168.492050,288.175873 164.825912,284.204315 
	C161.943939,281.082306 161.388809,277.333313 163.463364,273.688446 
	C165.900757,269.406097 169.839767,268.232941 174.894974,269.808899 
z"/>
<path fill="#F8F8F8" opacity="1.000000" stroke="none" 
	d="
M127.476784,309.265076 
	C126.407784,303.928284 128.473282,300.407684 132.945343,298.545044 
	C136.655457,296.999786 140.167740,297.994690 142.804169,301.054291 
	C145.595840,304.294067 146.207397,308.311981 143.520218,311.502625 
	C141.732269,313.625519 138.472000,315.264984 135.684647,315.607727 
	C131.756821,316.090759 128.915924,313.521820 127.476784,309.265076 
z"/>
<path fill="#F8F8F8" opacity="1.000000" stroke="none" 
	d="
M161.616592,342.956299 
	C166.780426,344.235718 168.834930,347.626678 168.695312,352.223236 
	C168.580353,356.008057 166.576859,358.997498 162.764954,359.930878 
	C158.890274,360.879639 154.613617,360.768097 152.682159,356.727417 
	C151.468414,354.188263 151.146729,350.562927 151.943954,347.875488 
	C153.168854,343.746277 156.963913,342.450745 161.616592,342.956299 
z"/>
<path fill="#F8F8F8" opacity="1.000000" stroke="none" 
	d="
M138.072540,263.779663 
	C143.001068,270.471527 141.199402,277.855164 134.648849,279.068665 
	C130.416794,279.852661 126.456558,279.150482 124.418030,274.914490 
	C122.659637,271.260651 122.686081,267.334656 125.898010,264.344757 
	C129.504654,260.987396 133.610367,260.996368 138.072540,263.779663 
z"/>
<path fill="#F8F8F8" opacity="1.000000" stroke="none" 
	d="
M143.864929,266.780182 
	C143.419159,261.441956 145.869019,258.274109 150.404495,257.178955 
	C154.409195,256.211914 158.158478,257.418274 160.138260,261.380127 
	C161.963608,265.032898 162.004227,268.853729 158.939056,271.978638 
	C155.965149,275.010468 152.079819,276.013153 148.524078,273.696167 
	C146.450058,272.344696 145.405701,269.413055 143.864929,266.780182 
z"/>
<path fill="#C70F25" opacity="1.000000" stroke="none" 
	d="
M129.555939,346.351135 
	C127.775421,351.177124 124.448288,353.936646 119.879333,352.774963 
	C117.084900,352.064453 114.045029,349.589447 112.583046,347.058929 
	C110.754639,343.894287 111.623596,339.611359 114.947830,337.777954 
	C117.659439,336.282410 121.609367,335.552246 124.549805,336.298035 
	C128.966980,337.418365 130.030304,341.632721 129.555939,346.351135 
z"/>
<path fill="#FBFBFB" opacity="1.000000" stroke="none" 
	d="
M143.572266,348.085846 
	C148.124908,353.040009 148.206055,358.827637 144.112000,362.261841 
	C140.416962,365.361359 133.406647,364.985504 131.495056,360.696777 
	C130.157150,357.695190 129.981339,352.999329 131.449158,350.190155 
	C133.846268,345.602509 138.715546,345.857849 143.572266,348.085846 
z"/>
<path fill="#060606" opacity="1.000000" stroke="none" 
	d="
M197.216400,161.041046 
	C197.213821,178.926758 193.369202,182.310638 175.456421,180.369308 
	C175.456421,168.537247 175.456421,156.665375 175.456421,144.787781 
	C194.217865,142.175674 197.698776,146.368759 197.216400,161.041046 
z"/>
<path fill="#090909" opacity="1.000000" stroke="none" 
	d="
M247.948059,170.081787 
	C250.109116,181.373444 252.206741,192.243958 254.362183,203.414169 
	C247.006485,203.414169 240.237411,203.414169 232.593369,203.414169 
	C236.073059,185.066986 239.510239,166.943924 242.947418,148.820862 
	C243.189804,148.817154 243.432205,148.813461 243.674591,148.809769 
	C245.077927,155.760056 246.481262,162.710342 247.948059,170.081787 
z"/>
</svg>