<svg version="1.2" xmlns="http://www.w3.org/2000/svg" viewBox="0 0 500 500" width="500" height="500">
	<title>tsdark-svg</title>
	<style>
		.s0 { fill: #ececec } 
		.s1 { fill: #f9f9f9 } 
		.s2 { fill: #fafafa } 
		.s3 { fill: #f8f8f8 } 
		.s4 { fill: #ca0f25 } 
		.s5 { fill: #fbfbfb } 
		.s6 { fill: #fcfcfc } 
		.s7 { fill: #c70f25 } 
	</style>
	<path id="Layer" class="s0" d="m175.7 451.2c-75.3-30.9-121.5-85.8-135.6-165.7-16.1-91.4 29.7-178.8 108-222.1 37.2-20.5 77.3-29.9 119.7-25.6 86.4 8.9 146.7 54.2 181.6 133.4 3.8 8.7 6.2 17.9 9.3 26.9-3.6 0.7-3.7 0.7-4.6-2.9-4.5-16.5-10.8-32.2-19.3-46.9-30.6-52.9-75.3-87.6-134.8-102.1-114.1-27.7-229.9 44.8-254.9 159.5-23.7 109 40.8 217.8 148.9 248.1 62.5 17.4 121.6 7.7 175.3-28.7 51-34.6 80.7-83.2 90.5-144.1 0.2-1.4 0-3 0.5-4.4 0.3-1.1 1.4-1.9 2.9-3.8-8.4 124.5-144 231.1-287.5 178.4z"/>
	<path id="Layer" class="s1" d="m270.7 313.2c1.9 6 3.7 11.6 5.5 17.2q0.4 0 0.7-0.1c0-22.5 0-45 0-67.9 3.4 0 6.4 0 9.8 0 0 32.7 0 65.4 0 98.4-3.7 0-7.2 0-11.4 0-8-25.5-16.2-51.2-24.3-76.8q-0.4 0-0.8 0.1c0 25.5 0 51 0 76.7-3.5 0-6.5 0-9.8 0 0-32.8 0-65.4 0-98.7 4.1 0 8.4-0.3 12.6 0.1 0.9 0.1 2 2.3 2.5 3.7 5.1 15.6 10.1 31.3 15.2 47.3z"/>
	<path id="Layer" fill-rule="evenodd" class="s2" d="m177.2 190.9c-1 1.5-2 3-2 4.5-0.1 12.3 0 24.7 0 37.3-3.6 0-7 0-10.8 0 0-32.6 0-65.3 0-99 10 0.4 20.1 0.3 30.1 1.5 7.8 1 12.2 7 13 14.5 0.8 7.2 0.7 14.7 0 21.9-0.5 6.1-4.2 10.7-11 13.5 9.6 3.8 11.6 11.2 11.8 19.6 0.2 7.1 0.2 14.3 0.4 21.4 0.1 2.2 0.7 4.3 1.1 6.5-0.2 0-0.4 0.3-0.7 0.3-11.3 0.5-11.8 0.1-11.9-11.4 0-5.7 0.1-11.3 0-17-0.3-9.4-4.1-13.3-13.5-13.6-2 0-4 0-6.5 0zm20-30.3c0.5-14.2-3-18.4-21.7-15.8q0 17.8 0 35.6c17.9 1.9 21.7-1.5 21.7-19.8z"/>
	<path id="Layer" class="s2" d="m344.2 208.1c0 8.5 0 16.4 0 24.7-3.7 0-7.2 0-10.9 0 0-32.8 0-65.5 0-98.5 3.5 0 6.9 0 10.6 0 0 15.2 0 30.3 0 46.9 1.5-2.2 2.4-3.3 3-4.4 6.7-12.2 13.7-24.3 20.1-36.8 2.3-4.6 5-6.9 10.2-6 1.1 0.2 2.3 0 4.1 0-0.7 1.7-1.3 3-1.9 4.2-6.9 12.5-13.8 25.1-20.9 37.5-1.5 2.6-1.4 4.6-0.1 7.3 8 16.4 15.9 32.8 24.1 50-3 0-5.4-0.2-7.8 0.1-2.8 0.3-4.1-0.8-5.3-3.3-5.3-11.2-10.9-22.4-16.4-33.5-0.9-1.8-1.8-3.5-3-5.7-3.9 5.4-7 10.5-5.8 17.5z"/>
	<path id="Layer" fill-rule="evenodd" class="s1" d="m257.8 164.1c2.3 11.9 4.4 23.3 6.6 34.8 2.1 11.2 4.3 22.4 6.5 33.9-3.7 0-7.2 0-11 0-1.3-6.4-2.6-12.9-3.9-19.5-8.3 0-16.4 0-24.8 0-1.3 6.4-2.6 12.9-3.9 19.5-3.5 0-6.8 0-10.3 0 6.4-33 12.7-65.8 18.9-98.6 5.5 0 10.4 0 16 0 2 9.7 3.9 19.6 5.9 29.9zm-9.9 5.6q-2.1-10.5-4.2-20.9-0.4 0-0.8 0c-3.4 18.1-6.8 36.3-10.3 54.6 7.6 0 14.4 0 21.8 0-2.2-11.2-4.3-22-6.5-33.7z"/>
	<path id="Layer" class="s3" d="m297.2 290.5c-0.1-3-0.2-5.5-0.1-8 0.7-13.3 8.4-21.1 20.8-21.4 13.5-0.4 21.5 6.8 22.9 20.4 0.2 2.1 0 4.3 0 6.8-3.2 0-6.4 0-10.1 0-0.2-2.3-0.3-4.8-0.7-7.2-0.8-6.1-4.1-9.4-9.9-9.9-6.1-0.4-10.1 2.5-11.6 8.7-1.8 7.8 0.4 14.6 6 20.1 4.2 4.2 8.9 8 13.4 11.9 10.7 9 15.7 20.1 12.2 34.1-2.8 11.3-10.2 16.4-23 16-10.9-0.4-18.1-6.6-19.9-17.4-0.7-4.1-0.6-8.3-0.8-12.7 3.7 0 6.9 0 10.2 0 0.4 4 0.4 8.1 1.3 11.9 1.2 5.5 4.8 8 10.4 8.1 5.8 0.1 9.4-2.6 10.9-8.2 2.2-7.8 0.2-14.6-5.4-20.2-4.1-4.1-8.6-7.8-13-11.7-6.5-5.7-11.9-12-13.6-21.3z"/>
	<path id="Layer" class="s4" d="m320.8 196.9c1.1 0.7 2.1 1.4 2.1 2-0.2 6.3 0.2 12.8-1 18.9-2.2 11.4-10.6 16.9-23.4 16.2-10.8-0.6-18.9-7.5-19.3-18.6-0.6-21.3-0.6-42.6 0-63.9 0.4-11 9-17.9 20.1-18.4 12-0.5 20.3 5 22.6 16 1.2 5.6 1 11.5 1.5 17.6-3.9 0-7 0-10.3 0-0.3-4.5-0.5-8.8-1-13.1-0.7-6.8-4.7-10.4-11-10.5-6.3 0-11 3.7-11.1 10.4-0.4 20.2-0.3 40.3 0 60.5 0.1 6.3 4.8 9.9 11 9.9 6.2 0.1 10.3-3.4 11-9.8 0.6-5.4 0.7-10.9 1.1-17.2 2.4 0 4.8 0 7.7 0z"/>
	<path id="Layer" class="s5" d="m194.3 262c12.1 0 23.7 0 35.7 0 0 3.3 0 6.4 0 9.9-9.4 0-19 0-28.9 0 0 11.5 0 22.6 0 34 7.9 0 15.6 0 23.6 0 0 3.4 0 6.3 0 9.9q-11.7 0-23.7 0c0 12 0 23.3 0 35.1 9.8 0 19.4 0 29.1 0 0 3.5 0 6.7 0 9.9-13.4 0-26.7 0-40.2 0 0-32.8 0-65.5 0-98.5 1.4-0.1 2.6-0.2 4.4-0.3z"/>
	<path id="Layer" class="s6" d="m368.1 272.1c-2.1 0-3.8 0-5.8 0 0 11.3 0 22.3 0 33.7 7.8 0 15.5 0 23.5 0 0 3.5 0 6.5 0 10-7.8 0-15.6 0-23.6 0 0 11.8 0 23.2 0 35 9.6 0 19.2 0 29.1 0 0 3.4 0 6.4 0 9.9-13.2 0-26.6 0-40.2 0 0-32.8 0-65.5 0-98.4 13.4 0 26.7 0 40.3 0 0 3.1 0 6.1 0 9.8-7.6 0-15.2 0-23.3 0z"/>
	<path id="Layer" class="s1" d="m143.1 144.1c-1.8 0.1-3.1 0.2-4.7 0.3 0 29.5 0 58.8 0 88.3-3.8 0-7.2 0-11.1 0 0-29.3 0-58.7 0-88.4-6.2 0-12 0-18 0 0-3.5 0-6.6 0-10 15.6 0 31.2 0 47.1 0 0 3.1 0 6.1 0 9.8-4.3 0-8.6 0-13.3 0z"/>
	<path id="Layer" class="s3" d="m131.3 294.2c-3.3 4.3-7.4 5-11.6 2.8-3.8-2-5.4-5.5-4.5-9.6 0.8-4.2 3.7-6.5 7.9-7.1 7.2-0.9 11.5 6 8.2 13.9z"/>
	<path id="Layer" class="s3" d="m158 326.5c-8.9 1.3-14.4-3-12.8-9.7 0.9-4.1 3.4-6.8 7.9-7 4.3-0.3 7.5 1.2 9.1 5.4 1.9 4.7 0.3 8.4-4.2 11.3z"/>
	<path id="Layer" class="s3" d="m169.6 341.9c-6.6-0.3-9.7-2.9-10.3-8.1-0.5-4.3 2.1-8.1 6.5-9.3 4.5-1.3 8.6 0.7 10.5 5 2.3 5.1-0.1 9.7-6.7 12.4z"/>
	<path id="Layer" class="s7" d="m174.9 269.8c5.8 4.4 6.8 9.8 3 14.1-3.5 4.1-9.4 4.3-13.1 0.3-2.9-3.1-3.4-6.9-1.3-10.5 2.4-4.3 6.3-5.5 11.4-3.9z"/>
	<path id="Layer" class="s3" d="m127.5 309.3c-1.1-5.4 1-8.9 5.4-10.8 3.8-1.5 7.3-0.5 9.9 2.6 2.8 3.2 3.4 7.2 0.7 10.4-1.8 2.1-5 3.8-7.8 4.1-3.9 0.5-6.8-2.1-8.2-6.3z"/>
	<path id="Layer" class="s3" d="m161.6 343c5.2 1.2 7.2 4.6 7.1 9.2-0.1 3.8-2.1 6.8-5.9 7.7-3.9 1-8.2 0.9-10.1-3.2-1.2-2.5-1.6-6.1-0.8-8.8 1.3-4.2 5.1-5.4 9.7-4.9z"/>
	<path id="Layer" class="s3" d="m138.1 263.8c4.9 6.7 3.1 14.1-3.5 15.3-4.2 0.8-8.1 0.1-10.2-4.2-1.7-3.6-1.7-7.6 1.5-10.6 3.6-3.3 7.7-3.3 12.2-0.5z"/>
	<path id="Layer" class="s3" d="m143.9 266.8c-0.5-5.4 2-8.5 6.5-9.6 4-1 7.8 0.2 9.7 4.2 1.9 3.6 1.9 7.5-1.2 10.6-2.9 3-6.8 4-10.4 1.7-2-1.4-3.1-4.3-4.6-6.9z"/>
	<path id="Layer" class="s7" d="m129.6 346.4c-1.8 4.8-5.2 7.5-9.7 6.4-2.8-0.7-5.9-3.2-7.3-5.7-1.8-3.2-1-7.5 2.3-9.3 2.8-1.5 6.7-2.2 9.6-1.5 4.5 1.1 5.5 5.3 5.1 10.1z"/>
	<path id="Layer" class="s5" d="m143.6 348.1c4.5 4.9 4.6 10.7 0.5 14.2-3.7 3.1-10.7 2.7-12.6-1.6-1.3-3-1.5-7.7-0.1-10.5 2.4-4.6 7.3-4.3 12.2-2.1z"/>
</svg>